<?xml version="1.0" encoding="UTF-8" standalone="no"?>
<!-- Created with Inkscape (http://www.inkscape.org/) -->

<svg
   width="210mm"
   height="297mm"
   viewBox="0 0 210 297"
   version="1.1"
   id="svg1"
   inkscape:export-filename="cube-L.png"
   inkscape:export-xdpi="96"
   inkscape:export-ydpi="96"
   inkscape:version="1.3.2 (091e20ef0f, 2023-11-25)"
   sodipodi:docname="drawing-x.svg"
   xmlns:inkscape="http://www.inkscape.org/namespaces/inkscape"
   xmlns:sodipodi="http://sodipodi.sourceforge.net/DTD/sodipodi-0.dtd"
   xmlns:xlink="http://www.w3.org/1999/xlink"
   xmlns="http://www.w3.org/2000/svg"
   xmlns:svg="http://www.w3.org/2000/svg">
  <sodipodi:namedview
     id="namedview1"
     pagecolor="#ffffff"
     bordercolor="#000000"
     borderopacity="0.25"
     inkscape:showpageshadow="2"
     inkscape:pageopacity="0.0"
     inkscape:pagecheckerboard="0"
     inkscape:deskcolor="#d1d1d1"
     inkscape:document-units="mm"
     showguides="true"
     inkscape:zoom="0.69753787"
     inkscape:cx="194.97149"
     inkscape:cy="438.68586"
     inkscape:window-width="1674"
     inkscape:window-height="1030"
     inkscape:window-x="103"
     inkscape:window-y="0"
     inkscape:window-maximized="0"
     inkscape:current-layer="layer1"
     showgrid="false">
    <sodipodi:guide
       position="65,225"
       orientation="1,0"
       id="guide11"
       inkscape:locked="false" />
    <sodipodi:guide
       position="144.51724,232.13793"
       orientation="0,-1"
       id="guide12"
       inkscape:locked="false" />
  </sodipodi:namedview>
  <defs
     id="defs1">
    <linearGradient
       id="linearGradient8"
       inkscape:collect="always">
      <stop
         style="stop-color:#020000;stop-opacity:1;"
         offset="0"
         id="stop8" />
      <stop
         style="stop-color:#ffffff;stop-opacity:1;"
         offset="1"
         id="stop9" />
    </linearGradient>
    <linearGradient
       id="swatch1"
       inkscape:swatch="solid">
      <stop
         style="stop-color:#000000;stop-opacity:1;"
         offset="0"
         id="stop1" />
    </linearGradient>
    <pattern
       inkscape:collect="always"
       xlink:href="#Cubes-2"
       preserveAspectRatio="none"
       id="pattern6-5"
       patternTransform="matrix(0.4,0,0,0.4,-30,-35)" />
    <pattern
       patternUnits="userSpaceOnUse"
       width="142"
       height="123"
       patternTransform="scale(0.4)"
       id="Cubes-2"
       preserveAspectRatio="none"
       style="fill:#000000"
       x="0"
       y="0"
       inkscape:label="Cubes"
       inkscape:collect="always"
       inkscape:isstock="true">
      <path
         id="path14-7"
         style="fill-opacity:0.6;stroke-width:2;stroke-miterlimit:10"
         d="M 0.00195313,0.001953 V 0.0039061 L 35.509766,20.503906 71.009766,0.0078124 106.50977,20.503906 142,0.0136718 V 0.001953 Z" />
      <path
         id="path16-6"
         style="fill-opacity:0.3;stroke-width:2;stroke-miterlimit:10"
         d="m 35.503902,61.5 0.0039,0.002 v 41 L 0,123.00195 V 81.998047 Z M 142.01171,0 l 0.004,0.002 v 41 l -35.5079,20.499953 V 20.498047 Z m -71.000002,0 0.0039,0.002 v 41 L 35.507806,61.501953 V 20.498047 Z m 35.492192,61.5 0.004,0.002 v 41 L 71,123.00195 V 81.998047 Z" />
      <path
         id="path18-1"
         style="fill-opacity:1;stroke-width:2;stroke-miterlimit:10"
         d="m 106.49609,61.5 -0.004,0.002 v 41 L 142,123.00195 V 81.998047 Z M 71.0039,0 71,0.002 v 41 l 35.50781,20.499953 V 20.498047 Z m -71,0 L 0,0.002 v 41 L 35.507806,61.501953 V 20.498047 Z m 35.492194,61.5 -0.0039,0.002 v 41 L 71,123.00195 V 81.998047 Z" />
      <path
         id="path20-4"
         style="fill-opacity:0.6;stroke-width:2;stroke-miterlimit:10"
         d="m 70.998047,41.001953 -35.5,20.496094 L 0,41.003906 v 40.998047 l 0.00195313,0.002 35.49999987,-20.496094 35.5,20.496094 L 106.50195,61.507812 142,82.001953 V 41.003906 l -0.002,-0.002 -35.5,20.496094 z" />
      <path
         id="path26-2"
         style="fill-opacity:0.6;stroke-width:2;stroke-miterlimit:10"
         d="M 35.505859,102.50195 0.00195313,123 v 0.002 H 142 v -0.008 l -35.49414,-20.49219 -35.500001,20.49609 z" />
    </pattern>
    <linearGradient
       inkscape:collect="always"
       xlink:href="#linearGradient8"
       id="linearGradient9"
       x1="0"
       y1="112.27586"
       x2="130"
       y2="242.27586"
       gradientUnits="userSpaceOnUse"
       gradientTransform="translate(0,-112.27586)" />
    <pattern
       inkscape:collect="always"
       xlink:href="#Checkerboard-8-8"
       preserveAspectRatio="xMidYMid"
       id="pattern4-4-4"
       patternTransform="matrix(10,0,0,10,0,0)"
       x="0"
       y="0" />
    <pattern
       inkscape:collect="always"
       style="fill:#000000"
       patternUnits="userSpaceOnUse"
       width="2"
       height="2"
       patternTransform="translate(0,0) scale(10,10)"
       id="Checkerboard-8-8"
       inkscape:stockid="Checkerboard"
       preserveAspectRatio="xMidYMid"
       inkscape:isstock="true"
       inkscape:label="Checkerboard">
      <rect
         style="stroke:none"
         x="0"
         y="0"
         width="1"
         height="1"
         id="rect209-8-1" />
      <rect
         style="stroke:none"
         x="1"
         y="1"
         width="1"
         height="1"
         id="rect211-2-0" />
    </pattern>
    <pattern
       inkscape:collect="always"
       xlink:href="#Cubes-2-9"
       preserveAspectRatio="none"
       id="pattern6-5-6"
       patternTransform="matrix(0.4,0,0,0.4,-30,-35)" />
    <pattern
       patternUnits="userSpaceOnUse"
       width="142"
       height="123"
       patternTransform="scale(0.4)"
       id="Cubes-2-9"
       preserveAspectRatio="none"
       style="fill:#000000"
       x="0"
       y="0"
       inkscape:label="Cubes"
       inkscape:collect="always"
       inkscape:isstock="true">
      <path
         id="path14-7-9"
         style="fill-opacity:0.6;stroke-width:2;stroke-miterlimit:10"
         d="M 0.00195313,0.001953 V 0.0039061 L 35.509766,20.503906 71.009766,0.0078124 106.50977,20.503906 142,0.0136718 V 0.001953 Z" />
      <path
         id="path16-6-6"
         style="fill-opacity:0.3;stroke-width:2;stroke-miterlimit:10"
         d="m 35.503902,61.5 0.0039,0.002 v 41 L 0,123.00195 V 81.998047 Z M 142.01171,0 l 0.004,0.002 v 41 l -35.5079,20.499953 V 20.498047 Z m -71.000002,0 0.0039,0.002 v 41 L 35.507806,61.501953 V 20.498047 Z m 35.492192,61.5 0.004,0.002 v 41 L 71,123.00195 V 81.998047 Z" />
      <path
         id="path18-1-3"
         style="fill-opacity:1;stroke-width:2;stroke-miterlimit:10"
         d="m 106.49609,61.5 -0.004,0.002 v 41 L 142,123.00195 V 81.998047 Z M 71.0039,0 71,0.002 v 41 l 35.50781,20.499953 V 20.498047 Z m -71,0 L 0,0.002 v 41 L 35.507806,61.501953 V 20.498047 Z m 35.492194,61.5 -0.0039,0.002 v 41 L 71,123.00195 V 81.998047 Z" />
      <path
         id="path20-4-1"
         style="fill-opacity:0.6;stroke-width:2;stroke-miterlimit:10"
         d="m 70.998047,41.001953 -35.5,20.496094 L 0,41.003906 v 40.998047 l 0.00195313,0.002 35.49999987,-20.496094 35.5,20.496094 L 106.50195,61.507812 142,82.001953 V 41.003906 l -0.002,-0.002 -35.5,20.496094 z" />
      <path
         id="path26-2-2"
         style="fill-opacity:0.6;stroke-width:2;stroke-miterlimit:10"
         d="M 35.505859,102.50195 0.00195313,123 v 0.002 H 142 v -0.008 l -35.49414,-20.49219 -35.500001,20.49609 z" />
    </pattern>
    <pattern
       inkscape:collect="always"
       xlink:href="#Cubes-2-9"
       preserveAspectRatio="none"
       id="pattern2"
       patternTransform="matrix(0.4,0,0,0.4,-30,-35)" />
    <pattern
       inkscape:collect="always"
       xlink:href="#Checkerboard-8-8-6"
       preserveAspectRatio="xMidYMid"
       id="pattern4-4-4-9"
       patternTransform="matrix(10,0,0,10,0,0)"
       x="0"
       y="0" />
    <pattern
       inkscape:collect="always"
       style="fill:#000000"
       patternUnits="userSpaceOnUse"
       width="2"
       height="2"
       patternTransform="translate(0,0) scale(10,10)"
       id="Checkerboard-8-8-6"
       inkscape:stockid="Checkerboard"
       preserveAspectRatio="xMidYMid"
       inkscape:isstock="true"
       inkscape:label="Checkerboard">
      <rect
         style="stroke:none"
         x="0"
         y="0"
         width="1"
         height="1"
         id="rect209-8-1-7" />
      <rect
         style="stroke:none"
         x="1"
         y="1"
         width="1"
         height="1"
         id="rect211-2-0-7" />
    </pattern>
    <pattern
       inkscape:collect="always"
       xlink:href="#Checkerboard-8-8-6"
       preserveAspectRatio="xMidYMid"
       id="pattern7"
       patternTransform="matrix(10,0,0,10,0,0)"
       x="0"
       y="0" />
  </defs>
  <g
     inkscape:label="Layer 1"
     inkscape:groupmode="layer"
     id="layer1">
    <g
       id="g7"
       inkscape:export-filename=".\cubel-R.png"
       inkscape:export-xdpi="96"
       inkscape:export-ydpi="96">
      <use
         x="0"
         y="0"
         xlink:href="#g-pozadina"
         id="use5" />
      <use
         x="0"
         y="0"
         xlink:href="#g-kocke"
         id="use7"
         transform="translate(10,15)" />
      <use
         x="0"
         y="0"
         xlink:href="#g-shah"
         id="use6"
         transform="translate(30,40)" />
    </g>
    <g
       id="g7-7"
       transform="translate(40,151.44828)"
       inkscape:export-filename=".\cubel-L.png"
       inkscape:export-xdpi="96"
       inkscape:export-ydpi="96">
      <use
         x="0"
         y="0"
         xlink:href="#g-pozadina"
         id="use5-7" />
      <use
         x="0"
         y="0"
         xlink:href="#g-kocke"
         id="use7-2"
         transform="translate(20,15)" />
      <use
         x="0"
         y="0"
         xlink:href="#g-shah"
         id="use6-2"
         transform="translate(50,40)" />
    </g>
    <g
       id="g5"
       transform="translate(-136.89583,-135.17241)">
      <g
         id="g-pozadina">
        <rect
           style="fill:url(#linearGradient9);stroke:none;stroke-width:0.25;stroke-opacity:1"
           id="rect8"
           width="130"
           height="130"
           x="0"
           y="0" />
      </g>
    </g>
    <g
       id="g3"
       transform="translate(-122.02083,21.366379)">
      <g
         id="g-shah">
        <rect
           style="fill:#8df1f6;fill-opacity:1;stroke:none;stroke-width:0.25;stroke-opacity:1"
           id="rect6-1-0"
           width="50"
           height="50"
           x="0"
           y="0" />
        <rect
           style="fill:url(#pattern4-4-4);stroke:#000000;stroke-width:0.25;stroke-opacity:1"
           id="rect1-7-8"
           width="50"
           height="50"
           x="0"
           y="0" />
        <circle
           style="fill:#ffffff;stroke-width:0.25"
           id="path1"
           cx="15"
           cy="5"
           r="3" />
        <circle
           style="fill:#ffffff;stroke-width:0.25"
           id="path1-9"
           cx="25"
           cy="15"
           r="3" />
        <circle
           style="fill:#ffffff;stroke-width:0.25"
           id="path1-0"
           cx="5"
           cy="35"
           r="3" />
        <circle
           style="fill:#ffffff;stroke-width:0.25"
           id="path1-0-6"
           cx="35"
           cy="25"
           r="3" />
        <circle
           style="fill:#ffffff;stroke-width:0.25"
           id="path1-04"
           cx="15"
           cy="45"
           r="3" />
        <rect
           style="fill:#ffffff;stroke-width:0.25"
           id="rect1"
           width="3"
           height="3"
           x="26.784271"
           y="-22.713203"
           transform="rotate(45)" />
        <rect
           style="fill:#ffffff;stroke-width:0.25"
           id="rect1-7"
           width="3"
           height="3"
           x="40.959614"
           y="-22.746412"
           transform="rotate(45)" />
        <rect
           style="fill:#ffffff;stroke-width:0.25"
           id="rect1-75"
           width="3"
           height="3"
           x="40.862591"
           y="5.5072517"
           transform="rotate(45)" />
        <rect
           style="fill:#ffffff;stroke-width:0.25"
           id="rect1-75-7"
           width="3"
           height="3"
           x="55.372009"
           y="5.2675996"
           transform="rotate(45)" />
        <rect
           style="fill:#ffffff;stroke-width:0.25"
           id="rect1-9"
           width="3"
           height="3"
           x="26.784271"
           y="5.5710678"
           transform="rotate(45)" />
        <rect
           style="fill:#ffffff;stroke-width:0.25"
           id="rect2"
           width="2.5"
           height="7.5"
           x="3.5"
           y="1.25" />
        <rect
           style="fill:#ffffff;stroke-width:0.25"
           id="rect2-0"
           width="2.5"
           height="7.5"
           x="13.75"
           y="11.25" />
        <rect
           style="fill:#ffffff;stroke-width:0.25"
           id="rect2-7"
           width="2.5"
           height="7.5"
           x="23.75"
           y="21.25" />
        <rect
           style="fill:#ffffff;stroke-width:0.25"
           id="rect2-5"
           width="2.5"
           height="7.5"
           x="33.75"
           y="31.15975" />
        <rect
           style="fill:#ffffff;stroke-width:0.25"
           id="rect2-9"
           width="2.5"
           height="7.5"
           x="43.348415"
           y="40.885632" />
        <rect
           style="fill:#ffffff;stroke-width:0.25"
           id="rect3"
           width="7.5"
           height="2"
           x="21.25"
           y="4" />
        <rect
           style="fill:#ffffff;stroke-width:0.25"
           id="rect3-2"
           width="7.5"
           height="2"
           x="31.25"
           y="14" />
        <rect
           style="fill:#ffffff;stroke-width:0.25"
           id="rect3-2-2"
           width="7.5"
           height="2"
           x="11.25"
           y="34" />
        <rect
           style="fill:#ffffff;stroke-width:0.25"
           id="rect3-9"
           width="7.5"
           height="2"
           x="1"
           y="24" />
        <rect
           style="fill:#ffffff;stroke-width:0.25"
           id="rect3-22"
           width="7.5"
           height="2"
           x="21.25"
           y="44" />
      </g>
    </g>
    <g
       id="g4"
       transform="translate(-126.89583,116.44828)">
      <g
         id="g-kocke">
        <rect
           style="fill:#ffffff;fill-opacity:1;stroke:none;stroke-width:0.25;stroke-opacity:1"
           id="rect14-7"
           width="100"
           height="100"
           x="0"
           y="0" />
        <rect
           style="fill:url(#pattern6-5);stroke:none;stroke-width:0.25;stroke-opacity:1"
           id="rect4-2"
           width="100"
           height="100"
           x="0"
           y="0" />
        <circle
           style="fill:#ffffff;stroke-width:0.25"
           id="path2"
           cx="26.911016"
           cy="13.342171"
           r="4" />
        <rect
           style="fill:#ffffff;stroke-width:0.25"
           id="rect4"
           width="7.5"
           height="7.5"
           x="51.452244"
           y="10.45" />
      </g>
    </g>
  </g>
</svg>
